<?xml version="1.0" encoding="UTF-8"?>
<svg version="1.1" xmlns="http://www.w3.org/2000/svg" width="36" height="36">
<path d="M0 0 C4.8404001 2.60960701 8.06650639 6.09014417 9.796875 11.28125 C10.02669485 14.96493389 9.98203207 18.65363814 9.984375 22.34375 C9.99662109 23.36275391 10.00886719 24.38175781 10.02148438 25.43164062 C10.02341797 26.40423828 10.02535156 27.37683594 10.02734375 28.37890625 C10.03145264 29.27101807 10.03556152 30.16312988 10.03979492 31.08227539 C9.796875 33.28125 9.796875 33.28125 7.796875 35.28125 C4.6640625 35.54003906 4.6640625 35.54003906 0.671875 35.546875 C-0.0308252 35.54878845 -0.73352539 35.5507019 -1.45751953 35.55267334 C-2.94368854 35.55403475 -4.42986945 35.55034132 -5.91601562 35.54199219 C-8.19428146 35.53129154 -10.47175877 35.54188839 -12.75 35.5546875 C-14.19271008 35.5533659 -15.63541966 35.55080349 -17.078125 35.546875 C-18.39554688 35.54461914 -19.71296875 35.54236328 -21.0703125 35.54003906 C-24.203125 35.28125 -24.203125 35.28125 -26.203125 33.28125 C-26.68485886 29.74030369 -26.57352748 26.16372073 -26.578125 22.59375 C-26.60261719 21.61212891 -26.62710937 20.63050781 -26.65234375 19.61914062 C-26.677935 13.25971544 -25.96202014 9.45574367 -22.203125 4.28125 C-16.11678464 -1.35974838 -7.95715926 -2.59595267 0 0 Z M-9.203125 10.28125 C-9.63625 11.085625 -10.069375 11.89 -10.515625 12.71875 C-12.203125 15.28125 -12.203125 15.28125 -14.890625 16.09375 C-16.0353125 16.1865625 -16.0353125 16.1865625 -17.203125 16.28125 C-17.203125 16.94125 -17.203125 17.60125 -17.203125 18.28125 C-16.254375 18.508125 -15.305625 18.735 -14.328125 18.96875 C-11.203125 20.28125 -11.203125 20.28125 -9.828125 22.90625 C-9.621875 23.69 -9.415625 24.47375 -9.203125 25.28125 C-8.543125 25.28125 -7.883125 25.28125 -7.203125 25.28125 C-6.955625 24.4975 -6.708125 23.71375 -6.453125 22.90625 C-5.04923401 19.95807892 -4.19636763 19.3787723 -1.203125 18.28125 C-1.203125 17.62125 -1.203125 16.96125 -1.203125 16.28125 C-2.0075 15.806875 -2.811875 15.3325 -3.640625 14.84375 C-6.203125 13.28125 -6.203125 13.28125 -7.203125 10.28125 C-7.863125 10.28125 -8.523125 10.28125 -9.203125 10.28125 Z " fill="#744BF2" transform="translate(26.203125,0.71875)"/>
<path d="M0 0 C2.27024968 -0.08097324 4.54132075 -0.13917704 6.8125 -0.1875 C8.07707031 -0.22230469 9.34164063 -0.25710937 10.64453125 -0.29296875 C14 0 14 0 15.9375 1.0625 C17.59475792 4.08455855 17.28123569 6.78176996 17.1875 10.1875 C17.16042969 11.45980469 17.13335938 12.73210938 17.10546875 14.04296875 C17.07066406 15.01878906 17.03585938 15.99460937 17 17 C14.54137599 17.05383848 12.0839245 17.09359038 9.625 17.125 C8.57699219 17.15013672 8.57699219 17.15013672 7.5078125 17.17578125 C5.67102514 17.19344267 3.83398037 17.10303261 2 17 C0 15 0 15 -0.1953125 11.5234375 C-0.18201493 10.14049032 -0.15816232 8.75761346 -0.125 7.375 C-0.11597656 6.66859375 -0.10695312 5.9621875 -0.09765625 5.234375 C-0.07407603 3.48943902 -0.03820461 1.74467705 0 0 Z " fill="#693DF1" transform="translate(0,19)"/>
<path d="M0 0 C0.99 0.33 1.98 0.66 3 1 C0.69 3.31 -1.62 5.62 -4 8 C-4 4.09161134 -2.49432124 2.88405893 0 0 Z " fill="#A186F6" transform="translate(6,3)"/>
<path d="M0 0 C1.32 0 2.64 0 4 0 C4 1.32 4 2.64 4 4 C2.68 4 1.36 4 0 4 C0 2.68 0 1.36 0 0 Z " fill="#9E82F6" transform="translate(32,0)"/>
</svg>
